<svg xmlns="http://www.w3.org/2000/svg" version="1.1" viewBox="0 0 24 24"><defs><filter id="filter1" width="1.119" height="1.204" x="-.059" y="-.102" color-interpolation-filters="sRGB"><feGaussianBlur stdDeviation=".593"/></filter></defs><g><path fill="#404040" d="m4.0039 7.0058-2 2v2h3.9961v6c-1.5421 0-3.6625-0.0017-3.9961 0v1.9961l1.9922 1.9922h4.0039l2.0098-1.9922v-1.9961h8.0098v1.9962l1.9883 1.9922h3.9961l1.9922-1.9922v-1.9961h-4v-6c1.4663 0 2.3327 6e-6 4 0v-2l-2-2h-3.9883l-1.9883 2v1.9941h-8.0098v-1.9941l-2.0098-2z" filter="url(#filter1)" opacity=".75" transform="matrix(.8336 0 0 .8336 .32953 .32953)"/><path fill="#fff" d="m4.0039 7.0058-2 2v2h3.9961v6c-1.5421 0-3.6625-0.0017-3.9961 0v1.9961l1.9922 1.9922h4.0039l2.0098-1.9922v-1.9961h8.0098v1.9962l1.9883 1.9922h3.9961l1.9922-1.9922v-1.9961h-4v-6c1.4663 0 2.3327 6e-6 4 0v-2l-2-2h-3.9883l-1.9883 2v1.9941h-8.0098v-1.9941l-2.0098-2z" transform="matrix(.8336 0 0 .8336 .32953 .32953)"/></g><metadata/></svg>