<svg xmlns="http://www.w3.org/2000/svg" xmlns:xlink="http://www.w3.org/1999/xlink" version="1.1" viewBox="0 0 48 48"><defs><radialGradient id="radialGradient2" cx="2.508" cy="24.216" r="11.242" gradientTransform="matrix(1.2473 -.0055965 .0031537 .70286 -1.2221 7.0454)" gradientUnits="userSpaceOnUse"><stop offset="0" stop-color="#fff01f"/><stop offset=".331" stop-color="#fdc80f"/><stop offset="1" stop-color="#fb000a"/></radialGradient><radialGradient id="radialGradient5" cx="23.105" cy="23.813" r="12.058" gradientTransform="matrix(-1.4205 1.9619e-8 0 -.67084 76.795 40.026)" gradientUnits="userSpaceOnUse"><stop offset="0" stop-color="#abe923"/><stop offset=".331" stop-color="#5dbe2b"/><stop offset="1" stop-color="#109334"/></radialGradient><filter id="filter23" width="1.08" height="1.12" x="-.04" y="-.06" color-interpolation-filters="sRGB"><feGaussianBlur stdDeviation=".4"/></filter><filter id="filter1" width="1.08" height="1.12" x="-.04" y="-.06" color-interpolation-filters="sRGB"><feGaussianBlur stdDeviation=".4"/></filter></defs><g><path fill="#404040" d="m1.9827 24.052 7.9922-7.9922h16.02v3.9922l-6.0039-1e-6v8.0156h6.0039v3.9883h-16.008z" filter="url(#filter23)" opacity=".75" transform="translate(.013415 -.055595)" style="mix-blend-mode:normal"/><path fill="#404040" d="m21.987 22.064h6.0078v-6.0048h9.9961l7.9922 7.9922-8.0039 8.0039h-9.9844v-5.9917h-6.0078z" filter="url(#filter1)" opacity=".75" transform="translate(.013415 -.055595)" style="mix-blend-mode:normal"/><path fill="url(#radialGradient2)" d="m1.9827 24.052 7.9922-7.9922h16.02v3.9922l-6.0039-1e-6v8.0156h6.0039v3.9883h-16.008z" transform="translate(.013415 -.055595)"/><path fill="url(#radialGradient5)" d="m21.987 22.064h6.0078v-6.0048h9.9961l7.9922 7.9922-8.0039 8.0039h-9.9844v-5.9917h-6.0078z" transform="translate(.013415 -.055595)"/></g><metadata/></svg>